<svg xmlns="http://www.w3.org/2000/svg" viewBox="0 0 220 132" width="220" height="132" role="img" aria-label="Gedong organisasi jeung laporan kauangan">
<defs><linearGradient id="o1" x1="0" y1="0" x2="1" y2="1"><stop offset="0" stop-color="#fff"/><stop offset="1" stop-color="#f2ede1"/></linearGradient></defs>
<rect x="14" y="100" width="192" height="8" rx="4" fill="#101c33" opacity=".1"/>
<g><rect x="26" y="34" width="72" height="66" rx="6" fill="#101c33"/>
<path d="M26 34l36-18 36 18z" fill="#1b2b4a"/>
<rect x="40" y="48" width="14" height="14" rx="2" fill="#e3c675"/><rect x="62" y="48" width="14" height="14" rx="2" fill="#f0e6cf"/>
<rect x="40" y="70" width="14" height="14" rx="2" fill="#f0e6cf"/><rect x="62" y="70" width="14" height="14" rx="2" fill="#e3c675"/>
<rect x="54" y="88" width="16" height="12" rx="2" fill="#b98b1e"/></g>
<g transform="translate(112 40)"><rect width="94" height="60" rx="9" fill="url(#o1)" stroke="#e3ddd0"/>
<rect x="12" y="12" width="34" height="6" rx="3" fill="#101c33" opacity=".75"/>
<g transform="translate(12 34)"><rect width="10" height="16" rx="2.5" fill="#e3ddd0"/><rect x="16" width="10" height="24" rx="2.5" fill="#e3c675"/><rect x="32" width="10" height="12" rx="2.5" fill="#e3ddd0"/><rect x="48" width="10" height="20" rx="2.5" fill="#b98b1e"/><rect x="64" width="10" height="8" rx="2.5" fill="#e3ddd0"/></g>
<g transform="translate(12 24)" opacity=".9"><path d="M0 8l16-6 16 4 16-9 16 3" fill="none" stroke="#1f7a52" stroke-width="2" stroke-linecap="round" stroke-linejoin="round"/></g></g>
<g transform="translate(150 96)"><circle r="12" fill="#101c33"/><circle cx="-14" r="10" fill="#b98b1e"/><circle cx="14" r="10" fill="#e3c675"/></g>
</svg>